<svg xmlns="http://www.w3.org/2000/svg" width="785" height="785" viewBox="0 0 785 785"><defs><style>.cls-1,.cls-7{opacity:0.5;}.cls-2{fill:#202f4e;stroke:#102448;stroke-miterlimit:10;}.cls-3,.cls-7,.cls-8{fill:#e9ebf0;}.cls-3{opacity:0;}.cls-4{fill:#ffff64;}.cls-5{fill:#17b17c;}.cls-6{fill:#41ebdb;}.cls-9{opacity:0.7;}</style></defs><title>main</title><g id="レイヤー_2" data-name="レイヤー 2"><g id="レイヤー_1-2" data-name="レイヤー 1"><g class="cls-1"><circle class="cls-2" cx="392.5" cy="392.5" r="168.5"/><circle class="cls-3" cx="392.5" cy="392.5" r="392.5"/><path class="cls-4" d="M394.07,214.83c-1.05-.05-2.09-.05-3.14,0-.12-2.44-.23-4.88-.35-7.32q1.92-.09,3.84,0C394.3,210,394.19,212.39,394.07,214.83Z"/><path class="cls-5" d="M387.87,214.89a29.86,29.86,0,0,0-3.14.11l-.6-7.31c1.27-.11,2.55-.15,3.83-.14Z"/><path class="cls-5" d="M381.67,215.16a29.93,29.93,0,0,0-3.13.22c-.29-2.43-.57-4.86-.86-7.29a37.7,37.7,0,0,1,3.83-.26C381.56,210.27,381.62,212.71,381.67,215.16Z"/><path class="cls-4" d="M375.49,215.64c-1,.06-2.09.17-3.12.33l-1.11-7.25c1.26-.19,2.53-.33,3.81-.4Z"/><path class="cls-6" d="M369.33,216.34c-1,.1-2.08.25-3.11.44q-.69-3.6-1.36-7.2c1.25-.24,2.52-.42,3.79-.54C368.88,211.48,369.1,213.91,369.33,216.34Z"/><path class="cls-5" d="M363.2,217.26a29.57,29.57,0,0,0-3.1.55c-.54-2.39-1.07-4.77-1.61-7.16,1.25-.28,2.51-.5,3.77-.66C362.57,212.41,362.89,214.83,363.2,217.26Z"/><path class="cls-5" d="M357.1,218.39c-1,.17-2.06.39-3.08.65L352.16,212c1.24-.33,2.49-.59,3.75-.8C356.31,213.56,356.7,216,357.1,218.39Z"/><path class="cls-5" d="M351,219.73c-1,.21-2,.46-3.05.76l-2.1-7q1.83-.56,3.72-.93C350.09,214.94,350.56,217.33,351,219.73Z"/><path class="cls-5" d="M345,221.28c-1,.24-2,.53-3,.87-.79-2.32-1.57-4.63-2.35-7,1.21-.41,2.44-.76,3.68-1C343.91,216.52,344.48,218.9,345,221.28Z"/><path class="cls-4" d="M339.09,223c-1,.28-2,.6-3,1q-1.29-3.42-2.59-6.86c1.2-.45,2.41-.84,3.65-1.18C337.8,218.33,338.45,220.69,339.09,223Z"/><path class="cls-6" d="M333.21,225a30.58,30.58,0,0,0-2.95,1.08c-.95-2.26-1.89-4.51-2.83-6.77,1.18-.49,2.38-.93,3.6-1.31C331.76,220.34,332.48,222.68,333.21,225Z"/><path class="cls-5" d="M327.4,227.18c-1,.35-2,.74-2.91,1.18Q323,225,321.42,221.7c1.17-.54,2.35-1,3.56-1.44Z"/><path class="cls-5" d="M321.67,229.55c-1,.39-1.93.81-2.87,1.28l-3.29-6.55c1.14-.57,2.31-1.09,3.5-1.56C319.9,225,320.78,227.28,321.67,229.55Z"/><path class="cls-5" d="M316,232.13c-1,.41-1.91.87-2.83,1.37-1.17-2.14-2.34-4.29-3.52-6.43q1.68-.91,3.45-1.68C314.09,227.64,315.06,229.88,316,232.13Z"/><path class="cls-5" d="M310.48,234.89c-1,.45-1.88.94-2.78,1.48L304,230.06c1.1-.65,2.23-1.25,3.38-1.8Z"/><path class="cls-4" d="M305,237.85c-.93.48-1.84,1-2.72,1.57l-4-6.17c1.08-.69,2.19-1.33,3.32-1.92Z"/><path class="cls-5" d="M299.68,241c-.91.51-1.8,1.07-2.66,1.66l-4.18-6c1.05-.72,2.14-1.4,3.25-2Z"/><path class="cls-4" d="M294.45,244.33c-.89.54-1.76,1.13-2.6,1.76l-4.39-5.88c1-.77,2.09-1.48,3.18-2.15Z"/><path class="cls-5" d="M289.34,247.84c-.87.58-1.72,1.19-2.54,1.85L282.21,244c1-.8,2-1.56,3.11-2.26Z"/><path class="cls-6" d="M284.36,251.53c-.86.61-1.69,1.25-2.48,1.93-1.59-1.85-3.19-3.7-4.78-5.56,1-.83,2-1.62,3-2.36Z"/><path class="cls-4" d="M279.5,255.39c-.83.63-1.64,1.31-2.41,2-1.65-1.8-3.31-3.59-5-5.39a38.28,38.28,0,0,1,2.94-2.46Z"/><path class="cls-5" d="M274.79,259.42a31,31,0,0,0-2.34,2.1l-5.16-5.21c.91-.9,1.86-1.76,2.85-2.57Z"/><path class="cls-6" d="M270.21,263.61c-.78.69-1.54,1.42-2.26,2.18l-5.34-5c.88-.93,1.8-1.82,2.76-2.66Q267.8,260.85,270.21,263.61Z"/><path class="cls-5" d="M265.79,268c-.76.72-1.49,1.48-2.18,2.26q-2.76-2.41-5.51-4.84c.84-1,1.73-1.88,2.66-2.76Z"/><path class="cls-5" d="M261.52,272.45a31,31,0,0,0-2.1,2.34l-5.68-4.65c.81-1,1.67-1.94,2.57-2.85Z"/><path class="cls-4" d="M257.41,277.09c-.71.77-1.39,1.58-2,2.41l-5.83-4.44a38.28,38.28,0,0,1,2.46-2.94Z"/><path class="cls-5" d="M253.46,281.88c-.68.79-1.32,1.62-1.93,2.48l-6-4.24c.74-1.05,1.53-2.05,2.36-3Z"/><path class="cls-5" d="M249.69,286.8c-.66.82-1.27,1.67-1.85,2.54l-6.13-4c.7-1.07,1.46-2.11,2.26-3.11Z"/><path class="cls-5" d="M246.09,291.85c-.63.84-1.22,1.71-1.76,2.6l-6.27-3.81c.67-1.09,1.38-2.15,2.15-3.18Z"/><path class="cls-5" d="M242.66,297c-.59.86-1.15,1.75-1.66,2.66l-6.4-3.59c.63-1.11,1.31-2.2,2-3.25Z"/><path class="cls-6" d="M239.42,302.31c-.56.88-1.09,1.79-1.57,2.72l-6.52-3.37c.59-1.13,1.23-2.24,1.92-3.32Z"/><path class="cls-4" d="M236.37,307.7c-.54.9-1,1.83-1.48,2.78l-6.63-3.14c.55-1.15,1.15-2.28,1.8-3.38Z"/><path class="cls-5" d="M233.5,313.2c-.5.92-1,1.87-1.37,2.83l-6.74-2.9q.77-1.77,1.68-3.45Z"/><path class="cls-5" d="M230.83,318.8c-.47.94-.89,1.9-1.28,2.87L222.72,319c.47-1.19,1-2.36,1.56-3.5Z"/><path class="cls-5" d="M228.36,324.49c-.44.95-.83,1.92-1.18,2.91L220.26,325c.42-1.21.9-2.39,1.44-3.56Z"/><path class="cls-5" d="M226.09,330.26a30.58,30.58,0,0,0-1.08,2.95L218,331c.38-1.22.82-2.42,1.31-3.6Z"/><path class="cls-4" d="M224,336.1c-.37,1-.69,2-1,3L216,337.16c.34-1.24.73-2.45,1.18-3.65Z"/><path class="cls-5" d="M222.15,342c-.34,1-.63,2-.87,3l-7.13-1.69c.29-1.24.64-2.47,1-3.68Z"/><path class="cls-5" d="M220.49,348c-.3,1-.55,2-.76,3.05l-7.19-1.43q.38-1.89.93-3.72Z"/><path class="cls-4" d="M219,354c-.26,1-.48,2-.65,3.08l-7.24-1.19c.21-1.26.47-2.51.8-3.75Z"/><path class="cls-5" d="M217.81,360.1a29.57,29.57,0,0,0-.55,3.1l-7.27-.94c.16-1.26.38-2.52.66-3.77Z"/><path class="cls-5" d="M216.78,366.22c-.19,1-.34,2.07-.44,3.11l-7.3-.68c.12-1.27.3-2.54.54-3.79Z"/><path class="cls-5" d="M216,372.37c-.16,1-.27,2.08-.33,3.12l-7.32-.42c.07-1.28.21-2.55.4-3.81Z"/><path class="cls-5" d="M215.38,378.54a29.93,29.93,0,0,0-.22,3.13l-7.33-.16a37.7,37.7,0,0,1,.26-3.83Z"/><path class="cls-6" d="M215,384.73a29.86,29.86,0,0,0-.11,3.14l-7.34.09c0-1.28,0-2.56.14-3.83Z"/><path class="cls-5" d="M214.83,390.93c-.05,1.05-.05,2.09,0,3.14l-7.32.35q-.09-1.92,0-3.84Z"/><path class="cls-5" d="M214.89,397.13a29.86,29.86,0,0,0,.11,3.14l-7.31.6c-.11-1.27-.15-2.55-.14-3.83Z"/><path class="cls-5" d="M215.16,403.33a29.93,29.93,0,0,0,.22,3.13l-7.29.86a37.7,37.7,0,0,1-.26-3.83Z"/><path class="cls-5" d="M215.64,409.51c.06,1,.17,2.09.33,3.12l-7.25,1.11c-.19-1.26-.33-2.53-.4-3.81Z"/><path class="cls-5" d="M216.34,415.67c.1,1,.25,2.08.44,3.11l-7.2,1.36c-.24-1.25-.42-2.52-.54-3.79Z"/><path class="cls-6" d="M217.26,421.8a29.57,29.57,0,0,0,.55,3.1l-7.16,1.61c-.28-1.25-.5-2.51-.66-3.77Z"/><path class="cls-5" d="M218.39,427.9c.17,1,.39,2.06.65,3.08L212,432.84c-.33-1.24-.59-2.49-.8-3.75Z"/><path class="cls-5" d="M219.73,434c.21,1,.46,2,.76,3.05l-7,2.1q-.56-1.83-.93-3.72Z"/><path class="cls-5" d="M221.28,440c.24,1,.53,2,.87,3l-7,2.35c-.41-1.21-.76-2.44-1-3.68Z"/><path class="cls-4" d="M223,445.91c.28,1,.6,2,1,3l-6.86,2.59c-.45-1.2-.84-2.41-1.18-3.65Z"/><path class="cls-5" d="M225,451.79a30.58,30.58,0,0,0,1.08,2.95l-6.77,2.83c-.49-1.18-.93-2.38-1.31-3.6Z"/><path class="cls-5" d="M227.18,457.6c.35,1,.74,2,1.18,2.91l-6.66,3.07c-.54-1.17-1-2.35-1.44-3.56Z"/><path class="cls-4" d="M229.55,463.33c.39,1,.81,1.93,1.28,2.87l-6.55,3.29c-.57-1.14-1.09-2.31-1.56-3.5Z"/><path class="cls-5" d="M232.13,469c.41,1,.87,1.91,1.37,2.83l-6.43,3.52q-.91-1.68-1.68-3.45Z"/><path class="cls-5" d="M234.89,474.52c.45,1,.94,1.88,1.48,2.78L230.06,481c-.65-1.1-1.25-2.23-1.8-3.38Z"/><path class="cls-5" d="M237.85,480c.48.93,1,1.84,1.57,2.72l-6.17,4c-.69-1.08-1.33-2.19-1.92-3.32Z"/><path class="cls-5" d="M241,485.32c.51.91,1.07,1.8,1.66,2.66l-6,4.18c-.72-1.05-1.4-2.14-2-3.25Z"/><path class="cls-5" d="M244.33,490.55c.54.89,1.13,1.76,1.76,2.6l-5.88,4.39c-.77-1-1.48-2.09-2.15-3.18Z"/><path class="cls-5" d="M247.84,495.66c.58.87,1.19,1.72,1.85,2.54L244,502.79c-.8-1-1.56-2-2.26-3.11Z"/><path class="cls-6" d="M251.53,500.64c.61.86,1.25,1.69,1.93,2.48l-5.56,4.78c-.83-1-1.62-2-2.36-3Z"/><path class="cls-5" d="M255.39,505.5c.63.83,1.31,1.64,2,2.41l-5.39,5a38.28,38.28,0,0,1-2.46-2.94Z"/><path class="cls-5" d="M259.42,510.21a31,31,0,0,0,2.1,2.34l-5.21,5.16c-.9-.91-1.76-1.86-2.57-2.85Z"/><path class="cls-4" d="M263.61,514.79c.69.78,1.42,1.54,2.18,2.26l-5,5.34c-.93-.88-1.82-1.8-2.66-2.76Q260.85,517.2,263.61,514.79Z"/><path class="cls-5" d="M268,519.21c.72.76,1.48,1.49,2.26,2.18q-2.41,2.76-4.84,5.51c-1-.84-1.88-1.73-2.76-2.66Z"/><path class="cls-5" d="M272.45,523.48a31,31,0,0,0,2.34,2.1l-4.65,5.68c-1-.81-1.94-1.67-2.85-2.57Z"/><path class="cls-5" d="M277.09,527.59c.77.71,1.58,1.39,2.41,2l-4.44,5.83a38.28,38.28,0,0,1-2.94-2.46C273.78,531.18,275.44,529.39,277.09,527.59Z"/><path class="cls-6" d="M281.88,531.54c.79.68,1.62,1.32,2.48,1.93l-4.24,6c-1.05-.74-2.05-1.53-3-2.36C278.69,535.24,280.29,533.39,281.88,531.54Z"/><path class="cls-5" d="M286.8,535.31c.82.66,1.67,1.27,2.54,1.85l-4,6.13c-1.07-.7-2.11-1.46-3.11-2.26Z"/><path class="cls-5" d="M291.85,538.91c.84.63,1.71,1.22,2.6,1.76l-3.81,6.27c-1.09-.67-2.15-1.38-3.18-2.15Z"/><path class="cls-5" d="M297,542.34c.86.59,1.75,1.15,2.66,1.66l-3.59,6.4c-1.11-.63-2.2-1.31-3.25-2Z"/><path class="cls-4" d="M302.31,545.58c.88.56,1.79,1.09,2.72,1.57l-3.37,6.52c-1.13-.59-2.24-1.23-3.32-1.92Z"/><path class="cls-5" d="M307.7,548.63c.9.54,1.83,1,2.78,1.48l-3.14,6.63c-1.15-.55-2.28-1.15-3.38-1.8Z"/><path class="cls-5" d="M313.2,551.5c.92.5,1.87,1,2.83,1.37-1,2.25-1.94,4.49-2.9,6.74q-1.77-.76-3.45-1.68C310.86,555.79,312,553.64,313.2,551.5Z"/><path class="cls-6" d="M318.8,554.17c.94.47,1.9.89,2.87,1.28-.89,2.27-1.77,4.55-2.66,6.83-1.19-.47-2.36-1-3.5-1.56Z"/><path class="cls-5" d="M324.49,556.64c.95.44,1.92.83,2.91,1.18L325,564.74c-1.21-.42-2.39-.9-3.56-1.44Q323,560,324.49,556.64Z"/><path class="cls-5" d="M330.26,558.91a30.58,30.58,0,0,0,2.95,1.08c-.73,2.33-1.45,4.67-2.18,7-1.22-.38-2.42-.82-3.6-1.31C328.37,563.42,329.31,561.17,330.26,558.91Z"/><path class="cls-5" d="M336.1,561c1,.37,2,.69,3,1-.64,2.35-1.29,4.71-1.93,7.07-1.24-.34-2.45-.73-3.65-1.18Q334.82,564.42,336.1,561Z"/><path class="cls-5" d="M342,562.85c1,.34,2,.63,3,.87-.56,2.38-1.13,4.76-1.69,7.13-1.24-.29-2.47-.64-3.68-1.05C340.45,567.48,341.23,565.17,342,562.85Z"/><path class="cls-4" d="M348,564.51c1,.3,2,.55,3.05.76-.48,2.4-1,4.79-1.43,7.19q-1.89-.37-3.72-.93Z"/><path class="cls-5" d="M354,566c1,.26,2,.48,3.08.65-.4,2.41-.79,4.83-1.19,7.24-1.26-.21-2.51-.47-3.75-.8Z"/><path class="cls-5" d="M360.1,567.19a29.57,29.57,0,0,0,3.1.55c-.31,2.43-.63,4.85-.94,7.27-1.26-.16-2.52-.38-3.77-.66C359,572,359.56,569.58,360.1,567.19Z"/><path class="cls-4" d="M366.22,568.22c1,.19,2.07.34,3.11.44-.23,2.43-.45,4.86-.68,7.3-1.27-.12-2.54-.3-3.79-.54Q365.54,571.82,366.22,568.22Z"/><path class="cls-5" d="M372.37,569c1,.16,2.08.27,3.12.33l-.42,7.32c-1.28-.07-2.55-.21-3.81-.4Z"/><path class="cls-5" d="M378.54,569.62a29.93,29.93,0,0,0,3.13.22c-.05,2.45-.11,4.89-.16,7.33a37.7,37.7,0,0,1-3.83-.26C378,574.48,378.25,572.05,378.54,569.62Z"/><path class="cls-5" d="M384.73,570a29.86,29.86,0,0,0,3.14.11l.09,7.34c-1.28,0-2.56,0-3.83-.14Z"/><path class="cls-5" d="M390.93,570.17c1.05.05,2.09.05,3.14,0,.12,2.44.23,4.88.35,7.32q-1.92.09-3.84,0C390.7,575.05,390.81,572.61,390.93,570.17Z"/><path class="cls-5" d="M397.13,570.11a29.86,29.86,0,0,0,3.14-.11l.6,7.31c-1.27.11-2.55.15-3.83.14Z"/><path class="cls-6" d="M403.33,569.84a29.93,29.93,0,0,0,3.13-.22c.29,2.43.57,4.86.86,7.29a37.7,37.7,0,0,1-3.83.26C403.44,574.73,403.38,572.29,403.33,569.84Z"/><path class="cls-5" d="M409.51,569.36c1-.06,2.09-.17,3.12-.33l1.11,7.25c-1.26.19-2.53.33-3.81.4Z"/><path class="cls-5" d="M415.67,568.66c1-.1,2.08-.25,3.11-.44q.69,3.6,1.36,7.2c-1.25.24-2.52.42-3.79.54C416.12,573.52,415.9,571.09,415.67,568.66Z"/><path class="cls-4" d="M421.8,567.74a29.57,29.57,0,0,0,3.1-.55c.54,2.39,1.07,4.77,1.61,7.16-1.25.28-2.51.5-3.77.66C422.43,572.59,422.11,570.17,421.8,567.74Z"/><path class="cls-5" d="M427.9,566.61c1-.17,2.06-.39,3.08-.65l1.86,7.09c-1.24.33-2.49.59-3.75.8C428.69,571.44,428.3,569,427.9,566.61Z"/><path class="cls-5" d="M434,565.27c1-.21,2-.46,3.05-.76l2.1,7q-1.83.56-3.72.93C434.91,570.06,434.44,567.67,434,565.27Z"/><path class="cls-6" d="M440,563.72c1-.24,2-.53,3-.87.79,2.32,1.57,4.63,2.35,6.95-1.21.41-2.44.76-3.68,1.05C441.09,568.48,440.52,566.1,440,563.72Z"/><path class="cls-5" d="M445.91,562c1-.28,2-.6,3-1q1.29,3.42,2.59,6.86c-1.2.45-2.41.84-3.65,1.18C447.2,566.67,446.55,564.31,445.91,562Z"/><path class="cls-4" d="M451.79,560a30.58,30.58,0,0,0,2.95-1.08c.95,2.26,1.89,4.51,2.83,6.77-1.18.49-2.38.93-3.6,1.31C453.24,564.66,452.52,562.32,451.79,560Z"/><path class="cls-5" d="M457.6,557.82c1-.35,2-.74,2.91-1.18q1.53,3.33,3.07,6.66c-1.17.54-2.35,1-3.56,1.44Z"/><path class="cls-5" d="M463.33,555.45c1-.39,1.93-.81,2.87-1.28l3.29,6.55c-1.14.57-2.31,1.09-3.5,1.56C465.1,560,464.22,557.72,463.33,555.45Z"/><path class="cls-5" d="M469,552.87c1-.41,1.91-.87,2.83-1.37,1.17,2.14,2.34,4.29,3.52,6.43q-1.68.92-3.45,1.68C470.91,557.36,469.94,555.12,469,552.87Z"/><path class="cls-5" d="M474.52,550.11c1-.45,1.88-.94,2.78-1.48l3.74,6.31c-1.1.65-2.23,1.25-3.38,1.8Z"/><path class="cls-6" d="M480,547.15c.93-.48,1.84-1,2.72-1.57l4,6.17c-1.08.69-2.19,1.33-3.32,1.92Z"/><path class="cls-5" d="M485.32,544c.91-.51,1.8-1.07,2.66-1.66l4.18,6c-1.05.72-2.14,1.4-3.25,2Z"/><path class="cls-5" d="M490.55,540.67c.89-.54,1.76-1.13,2.6-1.76l4.39,5.88c-1,.77-2.09,1.48-3.18,2.15Z"/><path class="cls-5" d="M495.66,537.16c.87-.58,1.72-1.19,2.54-1.85l4.59,5.72c-1,.8-2,1.56-3.11,2.26Z"/><path class="cls-5" d="M500.64,533.47c.86-.61,1.69-1.25,2.48-1.93,1.59,1.85,3.19,3.7,4.78,5.56-1,.83-2,1.62-3,2.36Z"/><path class="cls-5" d="M505.5,529.61c.83-.63,1.64-1.31,2.41-2,1.65,1.8,3.31,3.59,5,5.39a38.28,38.28,0,0,1-2.94,2.46Z"/><path class="cls-5" d="M510.21,525.58a31,31,0,0,0,2.34-2.1l5.16,5.21c-.91.9-1.86,1.76-2.85,2.57Z"/><path class="cls-5" d="M514.79,521.39c.78-.69,1.54-1.42,2.26-2.18l5.34,5c-.88.93-1.8,1.82-2.76,2.66Q517.2,524.16,514.79,521.39Z"/><path class="cls-5" d="M519.21,517.05c.76-.72,1.49-1.48,2.18-2.26q2.76,2.41,5.51,4.84c-.84,1-1.73,1.88-2.66,2.76Z"/><path class="cls-4" d="M523.48,512.55a31,31,0,0,0,2.1-2.34l5.68,4.65c-.81,1-1.67,1.94-2.57,2.85Z"/><path class="cls-5" d="M527.59,507.91c.71-.77,1.39-1.58,2-2.41l5.83,4.44a38.28,38.28,0,0,1-2.46,2.94Z"/><path class="cls-5" d="M531.54,503.12c.68-.79,1.32-1.62,1.93-2.48l6,4.24c-.74,1.05-1.53,2.05-2.36,3Z"/><path class="cls-6" d="M535.31,498.2c.66-.82,1.27-1.67,1.85-2.54l6.13,4c-.7,1.07-1.46,2.11-2.26,3.11Z"/><path class="cls-5" d="M538.91,493.15c.63-.84,1.22-1.71,1.76-2.6l6.27,3.81c-.67,1.09-1.38,2.15-2.15,3.18Z"/><path class="cls-5" d="M542.34,488c.59-.86,1.15-1.75,1.66-2.66l6.4,3.59c-.63,1.11-1.31,2.2-2,3.25Z"/><path class="cls-5" d="M545.58,482.69c.56-.88,1.09-1.79,1.57-2.72l6.52,3.37c-.59,1.13-1.23,2.24-1.92,3.32Z"/><path class="cls-5" d="M548.63,477.3c.54-.9,1-1.83,1.48-2.78l6.63,3.14c-.55,1.15-1.15,2.28-1.8,3.38Z"/><path class="cls-5" d="M551.5,471.8c.5-.92,1-1.87,1.37-2.83l6.74,2.9q-.76,1.77-1.68,3.45Z"/><path class="cls-4" d="M554.17,466.2c.47-.94.89-1.9,1.28-2.87l6.83,2.66c-.47,1.19-1,2.36-1.56,3.5Z"/><path class="cls-5" d="M556.64,460.51c.44-.95.83-1.92,1.18-2.91l6.92,2.42c-.42,1.21-.9,2.39-1.44,3.56Z"/><path class="cls-6" d="M558.91,454.74a30.58,30.58,0,0,0,1.08-2.95l7,2.18c-.38,1.22-.82,2.42-1.31,3.6Z"/><path class="cls-4" d="M561,448.9c.37-1,.69-2,1-3l7.07,1.93c-.34,1.24-.73,2.45-1.18,3.65Z"/><path class="cls-5" d="M562.85,443c.34-1,.63-2,.87-3l7.13,1.69c-.29,1.24-.64,2.47-1.05,3.68Z"/><path class="cls-5" d="M564.51,437c.3-1,.55-2,.76-3.05l7.19,1.43q-.37,1.89-.93,3.72Z"/><path class="cls-5" d="M566,431c.26-1,.48-2,.65-3.08l7.24,1.19c-.21,1.26-.47,2.51-.8,3.75Z"/><path class="cls-5" d="M567.19,424.9a29.57,29.57,0,0,0,.55-3.1l7.27.94c-.16,1.26-.38,2.52-.66,3.77Z"/><path class="cls-5" d="M568.22,418.78c.19-1,.34-2.07.44-3.11l7.3.68c-.12,1.27-.3,2.54-.54,3.79Z"/><path class="cls-5" d="M569,412.63c.16-1,.27-2.08.33-3.12l7.32.42c-.07,1.28-.21,2.55-.4,3.81Z"/><path class="cls-4" d="M569.62,406.46a29.93,29.93,0,0,0,.22-3.13l7.33.16a37.7,37.7,0,0,1-.26,3.83Z"/><path class="cls-6" d="M570,400.27a29.86,29.86,0,0,0,.11-3.14l7.34-.09c0,1.28,0,2.56-.14,3.83Z"/><path class="cls-5" d="M570.17,394.07c.05-1.05.05-2.09,0-3.14l7.32-.35q.09,1.92,0,3.84Z"/><path class="cls-5" d="M570.11,387.87a29.86,29.86,0,0,0-.11-3.14l7.31-.6c.11,1.27.15,2.55.14,3.83Z"/><path class="cls-5" d="M569.84,381.67a29.93,29.93,0,0,0-.22-3.13l7.29-.86a37.7,37.7,0,0,1,.26,3.83Z"/><path class="cls-6" d="M569.36,375.49c-.06-1-.17-2.09-.33-3.12l7.25-1.11c.19,1.26.33,2.53.4,3.81Z"/><path class="cls-5" d="M568.66,369.33c-.1-1-.25-2.08-.44-3.11l7.2-1.36c.24,1.25.42,2.52.54,3.79Z"/><path class="cls-5" d="M567.74,363.2a29.57,29.57,0,0,0-.55-3.1l7.16-1.61c.28,1.25.5,2.51.66,3.77Z"/><path class="cls-5" d="M566.61,357.1c-.17-1-.39-2.06-.65-3.08l7.09-1.86c.33,1.24.59,2.49.8,3.75Z"/><path class="cls-4" d="M565.27,351c-.21-1-.46-2-.76-3.05l7-2.1q.56,1.83.93,3.72Z"/><path class="cls-5" d="M563.72,345c-.24-1-.53-2-.87-3l6.95-2.35c.41,1.21.76,2.44,1.05,3.68Z"/><path class="cls-5" d="M562,339.09c-.28-1-.6-2-1-3l6.86-2.59c.45,1.2.84,2.41,1.18,3.65Z"/><path class="cls-5" d="M560,333.21a30.58,30.58,0,0,0-1.08-2.95l6.77-2.83c.49,1.18.93,2.38,1.31,3.6Z"/><path class="cls-4" d="M557.82,327.4c-.35-1-.74-2-1.18-2.91l6.66-3.07c.54,1.17,1,2.35,1.44,3.56Z"/><path class="cls-5" d="M555.45,321.67c-.39-1-.81-1.93-1.28-2.87l6.55-3.29c.57,1.14,1.09,2.31,1.56,3.5Z"/><path class="cls-5" d="M552.87,316c-.41-1-.87-1.91-1.37-2.83l6.43-3.52q.92,1.68,1.68,3.45Z"/><path class="cls-5" d="M550.11,310.48c-.45-1-.94-1.88-1.48-2.78l6.31-3.74c.65,1.1,1.25,2.23,1.8,3.38Z"/><path class="cls-5" d="M547.15,305c-.48-.93-1-1.84-1.57-2.72l6.17-4c.69,1.08,1.33,2.19,1.92,3.32Z"/><path class="cls-6" d="M544,299.68c-.51-.91-1.07-1.8-1.66-2.66l6-4.18c.72,1.05,1.4,2.14,2,3.25Z"/><path class="cls-5" d="M540.67,294.45c-.54-.89-1.13-1.76-1.76-2.6l5.88-4.39c.77,1,1.48,2.09,2.15,3.18Z"/><path class="cls-5" d="M537.16,289.34c-.58-.87-1.19-1.72-1.85-2.54l5.72-4.59c.8,1,1.56,2,2.26,3.11Z"/><path class="cls-5" d="M533.47,284.36c-.61-.86-1.25-1.69-1.93-2.48l5.56-4.78c.83,1,1.62,2,2.36,3Z"/><path class="cls-4" d="M529.61,279.5c-.63-.83-1.31-1.64-2-2.41l5.39-5a38.28,38.28,0,0,1,2.46,2.94Z"/><path class="cls-5" d="M525.58,274.79a31,31,0,0,0-2.1-2.34l5.21-5.16c.9.91,1.76,1.86,2.57,2.85Z"/><path class="cls-4" d="M521.39,270.21c-.69-.78-1.42-1.54-2.18-2.26l5-5.34c.93.88,1.82,1.8,2.66,2.76Q524.16,267.8,521.39,270.21Z"/><path class="cls-5" d="M517.05,265.79c-.72-.76-1.48-1.49-2.26-2.18q2.41-2.76,4.84-5.51c1,.84,1.88,1.73,2.76,2.66Z"/><path class="cls-4" d="M512.55,261.52a31,31,0,0,0-2.34-2.1l4.65-5.68c1,.81,1.94,1.67,2.85,2.57Z"/><path class="cls-5" d="M507.91,257.41c-.77-.71-1.58-1.39-2.41-2l4.44-5.83a38.28,38.28,0,0,1,2.94,2.46C511.22,253.82,509.56,255.61,507.91,257.41Z"/><path class="cls-5" d="M503.12,253.46c-.79-.68-1.62-1.32-2.48-1.93l4.24-6c1.05.74,2.05,1.53,3,2.36C506.31,249.76,504.71,251.61,503.12,253.46Z"/><path class="cls-6" d="M498.2,249.69c-.82-.66-1.67-1.27-2.54-1.85l4-6.13c1.07.7,2.11,1.46,3.11,2.26Z"/><path class="cls-5" d="M493.15,246.09c-.84-.63-1.71-1.22-2.6-1.76l3.81-6.27c1.09.67,2.15,1.38,3.18,2.15Z"/><path class="cls-5" d="M488,242.66c-.86-.59-1.75-1.15-2.66-1.66l3.59-6.4c1.11.63,2.2,1.31,3.25,2Z"/><path class="cls-6" d="M482.69,239.42c-.88-.56-1.79-1.09-2.72-1.57l3.37-6.52c1.13.59,2.24,1.23,3.32,1.92Z"/><path class="cls-5" d="M477.3,236.37c-.9-.54-1.83-1-2.78-1.48l3.14-6.63c1.15.55,2.28,1.15,3.38,1.8Z"/><path class="cls-5" d="M471.8,233.5c-.92-.5-1.87-1-2.83-1.37,1-2.25,1.94-4.49,2.9-6.74q1.77.77,3.45,1.68C474.14,229.21,473,231.36,471.8,233.5Z"/><path class="cls-5" d="M466.2,230.83c-.94-.47-1.9-.89-2.87-1.28.89-2.27,1.77-4.55,2.66-6.83,1.19.47,2.36,1,3.5,1.56Z"/><path class="cls-5" d="M460.51,228.36c-.95-.44-1.92-.83-2.91-1.18l2.42-6.92c1.21.42,2.39.9,3.56,1.44Q462,225,460.51,228.36Z"/><path class="cls-4" d="M454.74,226.09a30.58,30.58,0,0,0-2.95-1.08c.73-2.33,1.45-4.67,2.18-7,1.22.38,2.42.82,3.6,1.31C456.63,221.58,455.69,223.83,454.74,226.09Z"/><path class="cls-5" d="M448.9,224c-1-.37-2-.69-3-1,.64-2.35,1.29-4.71,1.93-7.07,1.24.34,2.45.73,3.65,1.18Q450.19,220.58,448.9,224Z"/><path class="cls-5" d="M443,222.15c-1-.34-2-.63-3-.87.56-2.38,1.13-4.76,1.69-7.13,1.24.29,2.47.64,3.68,1C444.55,217.52,443.77,219.83,443,222.15Z"/><path class="cls-5" d="M437,220.49c-1-.3-2-.55-3.05-.76.48-2.4,1-4.79,1.43-7.19q1.89.38,3.72.93Z"/><path class="cls-4" d="M431,219c-1-.26-2-.48-3.08-.65.4-2.41.79-4.83,1.19-7.24,1.26.21,2.51.47,3.75.8Z"/><path class="cls-5" d="M424.9,217.81a29.57,29.57,0,0,0-3.1-.55c.31-2.43.63-4.85.94-7.27,1.26.16,2.52.38,3.77.66C426,213,425.44,215.42,424.9,217.81Z"/><path class="cls-5" d="M418.78,216.78c-1-.19-2.07-.34-3.11-.44.23-2.43.45-4.86.68-7.3,1.27.12,2.54.3,3.79.54Q419.47,213.18,418.78,216.78Z"/><path class="cls-5" d="M412.63,216c-1-.16-2.08-.27-3.12-.33l.42-7.32c1.28.07,2.55.21,3.81.4Z"/><path class="cls-6" d="M406.46,215.38a29.93,29.93,0,0,0-3.13-.22c.05-2.45.11-4.89.16-7.33a37.7,37.7,0,0,1,3.83.26C407,210.52,406.75,213,406.46,215.38Z"/><path class="cls-5" d="M400.27,215a29.86,29.86,0,0,0-3.14-.11l-.09-7.34c1.28,0,2.56,0,3.83.14Z"/><path class="cls-7" d="M366.58,188.48q-9.9,1.43-19.69,3.47L326.85,96q12.79-2.67,25.76-4.54Q359.6,140,366.58,188.48Z"/><path class="cls-7" d="M267.86,229.09q-7.86,6.18-15.32,12.85l-65.32-73.05q9.75-8.73,20-16.82Z"/><path class="cls-7" d="M202.67,313.62q-3.71,9.28-6.84,18.79l-93.1-30.61q4.09-12.42,9-24.58Z"/><path class="cls-7" d="M188.48,419.42q1.43,9.9,3.47,19.69L96,459.15q-2.67-12.79-4.54-25.76Z"/><path class="cls-7" d="M196.17,454.53q3.14,9.5,6.84,18.79l-91,36.4q-4.86-12.15-8.94-24.58Z"/><path class="cls-7" d="M209.85,487.77q4.72,8.82,10,17.32l-83.29,51.64q-6.9-11.12-13.08-22.65Z"/><path class="cls-7" d="M229.09,518.14q6.18,7.86,12.85,15.32l-73.05,65.32q-8.73-9.75-16.82-20Z"/><path class="cls-7" d="M253.31,544.7q7.45,6.66,15.32,12.85l-60.6,77q-10.29-8.09-20-16.81Q220.65,581.22,253.31,544.7Z"/><path class="cls-7" d="M281.77,566.65q8.5,5.28,17.32,10Q275.95,619.84,252.78,663q-11.52-6.18-22.65-13.08Z"/><path class="cls-7" d="M347.87,594.22q9.79,2,19.7,3.47l-14,97q-12.94-1.86-25.76-4.54Z"/><path class="cls-7" d="M438.13,191.78q-9.79-2-19.7-3.47l14-97q12.94,1.86,25.76,4.54Z"/><path class="cls-7" d="M472.38,202.67q-9.28-3.71-18.79-6.84,15.3-46.54,30.61-93.1,12.42,4.09,24.58,9Z"/><path class="cls-7" d="M532.69,241.3q-7.46-6.66-15.32-12.85l60.6-77q10.29,8.08,20,16.81Q565.36,204.78,532.69,241.3Z"/><path class="cls-7" d="M589.83,331.47q-3.14-9.5-6.84-18.79l91-36.4q4.86,12.15,8.94,24.58Z"/><path class="cls-7" d="M597.52,366.58q-1.42-9.9-3.47-19.69l95.93-20q2.67,12.79,4.54,25.76Z"/><path class="cls-7" d="M599,402.5q.32-10,0-20l98-3.08q.42,13.08,0,26.16Z"/><path class="cls-7" d="M594.22,438.13q2-9.79,3.47-19.7l97,14q-1.86,12.94-4.54,25.76Z"/><path class="cls-7" d="M583.33,472.38q3.7-9.28,6.84-18.79l93.1,30.61q-4.1,12.42-8.95,24.58Z"/><path class="cls-7" d="M544.7,532.69q6.66-7.46,12.85-15.32l77,60.6q-8.09,10.29-16.81,20Z"/><path class="cls-7" d="M518.14,556.91q7.86-6.18,15.32-12.85l65.32,73.05q-9.75,8.73-20,16.82Z"/><path class="cls-7" d="M487.77,576.15q8.82-4.73,17.32-10,25.83,41.64,51.64,83.29-11.12,6.9-22.65,13.08Q510.93,619.34,487.77,576.15Z"/><path class="cls-7" d="M419.42,597.52q9.9-1.42,19.69-3.47l20,95.93q-12.79,2.67-25.76,4.54Q426.4,646,419.42,597.52Z"/><g class="cls-1"><path class="cls-8" d="M539.91,170a401.36,401.36,0,0,0-80.39-35.79q3.5-11,7-21.91a424,424,0,0,1,85,37.85Z"/></g><g class="cls-1"><path class="cls-8" d="M617.93,249A401.41,401.41,0,0,0,559,183.61l15.3-17.17a424.05,424.05,0,0,1,62.26,69.15Z"/></g><g class="cls-1"><path class="cls-8" d="M650.51,463.8a401,401,0,0,0,9.2-87.51l23-.12A423.87,423.87,0,0,1,673,468.7Z"/></g><g class="cls-1"><path class="cls-8" d="M599.45,562.42a401,401,0,0,0,44-76.21l21.06,9.25A424.26,424.26,0,0,1,618,576Z"/></g><g class="cls-1"><path class="cls-8" d="M446.24,626.79a401.32,401.32,0,0,0,86.07-18.3q3.62,10.92,7.22,21.84a424.29,424.29,0,0,1-91,19.34Z"/></g><g class="cls-1"><path class="cls-8" d="M202.93,580.61a401,401,0,0,0,71.19,51.72l-11.4,20a423.7,423.7,0,0,1-75.27-54.69Z"/></g><g class="cls-1"><path class="cls-8" d="M126.4,377.28a401.13,401.13,0,0,0,9.19,87.52l-22.47,4.9a424,424,0,0,1-9.72-92.54Z"/></g><g class="cls-1"><path class="cls-8" d="M155.84,270.2a400.61,400.61,0,0,0-27.19,83.7l-22.53-4.67a423.57,423.57,0,0,1,28.76-88.49Z"/></g><g class="cls-1"><path class="cls-8" d="M226.29,184.36a400.41,400.41,0,0,0-58.88,65.39q-9.34-6.7-18.68-13.42A424.05,424.05,0,0,1,211,167.18Z"/></g><g class="cls-1"><path class="cls-8" d="M325.56,134.59a401,401,0,0,0-80.39,35.79l-11.6-19.86a423.7,423.7,0,0,1,85-37.84Z"/></g><g class="cls-1"><path class="cls-8" d="M436.5,129.5a400.8,400.8,0,0,0-88,0L346,106.64a424.37,424.37,0,0,1,93,0Z"/></g><g class="cls-1"><path class="cls-8" d="M500.18,213.85q-9.57-5.49-19.43-10.38,10-20.15,19.87-40.38,11,5.47,21.76,11.61Q511.35,194.32,500.18,213.85Z"/></g><g class="cls-1"><path class="cls-8" d="M594.55,338.58q-3.07-10.59-6.76-21,21.19-7.53,42.34-15.24,4.13,11.6,7.58,23.46Q616.16,332.3,594.55,338.58Z"/></g><g class="cls-1"><path class="cls-8" d="M601.23,378q-1-11-2.64-21.87,22.24-3.35,44.47-6.88,1.85,12.18,3,24.48Q623.64,376,601.23,378Z"/></g><g class="cls-1"><path class="cls-8" d="M553.18,526.88q6.92-8.6,13.29-17.56,18.33,13.05,36.78,25.94-7.14,10.05-14.88,19.67Q570.72,541,553.18,526.88Z"/></g><g class="cls-1"><path class="cls-8" d="M524.69,555q8.43-7.12,16.4-14.7,15.51,16.31,31.15,32.48-8.93,8.49-18.35,16.47Q539.22,572.17,524.69,555Z"/></g><g class="cls-1"><path class="cls-8" d="M375.21,601q11,.74,22,.82-.16,22.5-.15,45-12.33-.09-24.65-.9Q373.71,623.45,375.21,601Z"/></g><g class="cls-1"><path class="cls-8" d="M298.58,579.19q9.93,4.8,20.1,9-8.58,20.8-17,41.67-11.4-4.7-22.51-10.07Q288.78,599.45,298.58,579.19Z"/></g><g class="cls-1"><path class="cls-8" d="M212.41,497.73q5.7,9.43,12,18.5-18.53,12.76-37,25.68-7-10.14-13.4-20.7Q193.17,509.39,212.41,497.73Z"/></g><g class="cls-1"><path class="cls-8" d="M186.32,422.45q1.77,10.89,4.16,21.63-22,4.89-43.89,10-2.68-12-4.66-24.21Q164.12,426,186.32,422.45Z"/></g><g class="cls-1"><path class="cls-8" d="M184.5,382.48q-.34,11-.05,22-22.48.62-45,1.41-.33-12.32,0-24.66Q162,381.78,184.5,382.48Z"/></g><g class="cls-1"><path class="cls-8" d="M203.63,305.14q-4.45,10.08-8.3,20.4Q174.26,317.68,153.1,310q4.29-11.55,9.27-22.85Q183,296.06,203.63,305.14Z"/></g><g class="cls-1"><path class="cls-8" d="M223.87,270.62q-6.3,9-12,18.44-19.2-11.73-38.5-23.31,6.42-10.51,13.47-20.66Q205.4,257.78,223.87,270.62Z"/></g><g class="cls-1"><path class="cls-8" d="M356.35,187.48q-10.82,2.13-21.47,4.91-5.65-21.78-11.49-43.51,11.92-3.1,24-5.51Q352,165.41,356.35,187.48Z"/></g><path class="cls-7" d="M557.49,268.93c-1.61-2.13-3.26-4.23-4.93-6.3l122.57-98.91q4.07,5,8,10.21Z"/><path class="cls-7" d="M596.48,360.68c-.42-2.64-.89-5.26-1.39-7.88L749.75,323q1.21,6.36,2.25,12.76Z"/><path class="cls-7" d="M587.84,460c.86-2.53,1.68-5.06,2.47-7.61l150.54,46.31q-1.9,6.18-4,12.31Z"/><path class="cls-7" d="M446.42,592c2.57-.69,5.14-1.43,7.69-2.2l45.78,150.7q-6.19,1.88-12.44,3.57Q466.93,668,446.42,592Z"/><path class="cls-7" d="M346.75,593.77c2.6.6,5.2,1.15,7.82,1.66Q339.41,672.71,324.25,750q-6.36-1.25-12.67-2.69Q329.18,670.53,346.75,593.77Z"/><path class="cls-7" d="M200.69,466.92q1.44,3.74,3,7.42L58.6,535.63q-2.52-6-4.85-12Z"/><path class="cls-7" d="M188.49,368c-.32,2.64-.59,5.3-.83,7.95l-156.88-14q.59-6.45,1.36-12.88Z"/><path class="cls-7" d="M224.18,274.9q-2.3,3.28-4.48,6.64l-131.94-86Q91.3,190.1,95,184.79Z"/><path class="cls-7" d="M299.38,209.47c-2.37,1.21-4.73,2.47-7.06,3.76L216.2,75.34q5.67-3.14,11.43-6.08Z"/><path class="cls-7" d="M396.5,187c-2.67,0-5.33,0-8,0Q387.27,108.26,386,29.52q6.47-.11,12.94,0Q397.74,108.26,396.5,187Z"/><g class="cls-1"><path class="cls-8" d="M617.21,125.68A531.09,531.09,0,0,0,500.89,61.2L502,58.42a533.68,533.68,0,0,1,117,64.84Z"/></g><g class="cls-1"><path class="cls-8" d="M724.8,285.11a531.09,531.09,0,0,0-64.48-116.32l2.42-1.77a533.68,533.68,0,0,1,64.84,117Z"/></g><g class="cls-1"><path class="cls-8" d="M731.55,477.33a530.58,530.58,0,0,0,7-132.81l3-.22a533.36,533.36,0,0,1-7,133.57Z"/></g><g class="cls-1"><path class="cls-8" d="M635.42,643.92A530.85,530.85,0,0,0,711.7,535l2.66,1.4a533.76,533.76,0,0,1-76.72,109.56Z"/></g><g class="cls-1"><path class="cls-8" d="M506.61,701.26a530.6,530.6,0,0,0,122.43-52l1.51,2.59a533.14,533.14,0,0,1-123.12,52.26C507.16,703.18,506.88,702.22,506.61,701.26Z"/></g><g class="cls-1"><path class="cls-8" d="M314.74,687.88A530.59,530.59,0,0,0,446.1,708.69l-.09,3A533.28,533.28,0,0,1,313.9,690.76Z"/></g><g class="cls-1"><path class="cls-8" d="M118.11,607.86a530.62,530.62,0,0,0,100.38,87.26l-1.67,2.49a533.21,533.21,0,0,1-100.94-87.75Z"/></g><g class="cls-1"><path class="cls-8" d="M46,429.54A530.61,530.61,0,0,0,84.91,556.73L82.17,558a533.58,533.58,0,0,1-39.1-127.91Z"/></g><g class="cls-1"><path class="cls-8" d="M79.38,240.12A530.41,530.41,0,0,0,45,368.59l-3-.41A533.48,533.48,0,0,1,76.6,239Z"/></g><g class="cls-1"><path class="cls-8" d="M208.05,97.16a530.51,530.51,0,0,0-97.27,90.7l-2.3-1.92A533.48,533.48,0,0,1,206.3,94.73Z"/></g><g class="cls-1"><path class="cls-8" d="M392.93,44.1A530.69,530.69,0,0,0,262.37,69.48c-.31-1-.62-1.9-.94-2.85a533.81,533.81,0,0,1,131.3-25.52C392.79,42.11,392.86,43.11,392.93,44.1Z"/></g><g class="cls-1"><path class="cls-8" d="M458,65a389.71,389.71,0,0,0-48.63-6c.06-1,.11-2,.17-3a391.8,391.8,0,0,1,49,6C458.33,63,458.14,64,458,65Z"/></g><g class="cls-1"><path class="cls-8" d="M524.74,85.65a388.57,388.57,0,0,0-46.33-16c.27-1,.53-1.93.8-2.89A392.81,392.81,0,0,1,525.9,82.88C525.51,83.8,525.13,84.72,524.74,85.65Z"/></g><g class="cls-1"><path class="cls-8" d="M585.77,119.75a390,390,0,0,0-42-25.23l1.39-2.67a394.23,394.23,0,0,1,42.32,25.43Z"/></g><g class="cls-1"><path class="cls-8" d="M638.36,165.8a390.39,390.39,0,0,0-35.83-33.42l1.9-2.31a392.3,392.3,0,0,1,36.11,33.67Z"/></g><g class="cls-1"><path class="cls-8" d="M680.24,221.78a391.38,391.38,0,0,0-28.11-40.14l2.35-1.87a393.13,393.13,0,0,1,28.32,40.45Z"/></g><g class="cls-1"><path class="cls-8" d="M709.56,285.24a390.24,390.24,0,0,0-19.14-45.1l2.68-1.34a393.81,393.81,0,0,1,19.29,45.45Z"/></g><g class="cls-1"><path class="cls-8" d="M726,423.32a390.84,390.84,0,0,0,.86-49l3-.13a392.93,392.93,0,0,1-.86,49.37Z"/></g><g class="cls-1"><path class="cls-8" d="M712.44,491.89a389.87,389.87,0,0,0,11-47.74l3,.49a394.47,394.47,0,0,1-11.1,48.11Z"/></g><g class="cls-1"><path class="cls-8" d="M684.9,556.15a391,391,0,0,0,20.71-44.41l2.79,1.09a391.91,391.91,0,0,1-20.87,44.75Z"/></g><g class="cls-1"><path class="cls-8" d="M644.6,613.27a389.62,389.62,0,0,0,29.49-39.13l2.5,1.65a392.88,392.88,0,0,1-29.71,39.43Z"/></g><g class="cls-1"><path class="cls-8" d="M593.31,660.77a392.27,392.27,0,0,0,37-32.15l2.1,2.14a391.54,391.54,0,0,1-37.26,32.39Z"/></g><g class="cls-1"><path class="cls-8" d="M574.26,663.56a389.85,389.85,0,0,0,42.85-23.75l1.62,2.53a392.47,392.47,0,0,1-43.19,23.93C575.11,665.37,574.68,664.47,574.26,663.56Z"/></g><g class="cls-1"><path class="cls-8" d="M508.08,686.09a389.61,389.61,0,0,0,46.86-14.33l1,2.81A392.67,392.67,0,0,1,508.77,689Z"/></g><g class="cls-1"><path class="cls-8" d="M438.66,694.37a391.13,391.13,0,0,0,48.81-4.27l.45,3a393.43,393.43,0,0,1-49.19,4.31C438.71,696.37,438.68,695.37,438.66,694.37Z"/></g><g class="cls-1"><path class="cls-8" d="M369,688a389.71,389.71,0,0,0,48.63,6c-.06,1-.11,2-.17,3a391.8,391.8,0,0,1-49-6C368.67,690,368.86,689,369,688Z"/></g><g class="cls-1"><path class="cls-8" d="M302.26,667.35a388.57,388.57,0,0,0,46.33,16c-.27,1-.53,1.93-.8,2.89a392.81,392.81,0,0,1-46.69-16.08C301.49,669.2,301.87,668.28,302.26,667.35Z"/></g><g class="cls-1"><path class="cls-8" d="M241.23,633.25a390,390,0,0,0,42,25.23l-1.39,2.67a394.23,394.23,0,0,1-42.32-25.43Z"/></g><g class="cls-1"><path class="cls-8" d="M147.64,620.2a390.39,390.39,0,0,0,35.83,33.42l-1.9,2.31a392.3,392.3,0,0,1-36.11-33.67Z"/></g><g class="cls-1"><path class="cls-8" d="M105.76,564.22a391.38,391.38,0,0,0,28.11,40.14l-2.35,1.87a393.13,393.13,0,0,1-28.32-40.45Z"/></g><g class="cls-1"><path class="cls-8" d="M76.44,500.76a390.24,390.24,0,0,0,19.14,45.1L92.9,547.2a393.81,393.81,0,0,1-19.29-45.45Z"/></g><g class="cls-1"><path class="cls-8" d="M61,432.58a390.91,390.91,0,0,0,9.35,48.1l-2.9.76A393.18,393.18,0,0,1,58,433Z"/></g><g class="cls-1"><path class="cls-8" d="M60,362.68a390.84,390.84,0,0,0-.86,49l-3,.13A392.93,392.93,0,0,1,57,362.44Z"/></g><g class="cls-1"><path class="cls-8" d="M73.56,294.11a389.87,389.87,0,0,0-11,47.74l-3-.49a394.47,394.47,0,0,1,11.1-48.11Z"/></g><g class="cls-1"><path class="cls-8" d="M101.1,229.85a391,391,0,0,0-20.71,44.41l-2.79-1.09a391.91,391.91,0,0,1,20.87-44.75Z"/></g><g class="cls-1"><path class="cls-8" d="M141.4,172.73a389.62,389.62,0,0,0-29.49,39.13l-2.5-1.65a392.88,392.88,0,0,1,29.71-39.43Z"/></g><g class="cls-1"><path class="cls-8" d="M192.69,125.23a392.27,392.27,0,0,0-37,32.15l-2.1-2.14a391.54,391.54,0,0,1,37.26-32.39Z"/></g><g class="cls-1"><path class="cls-8" d="M252.74,89.44a389.85,389.85,0,0,0-42.85,23.75l-1.62-2.53a392.47,392.47,0,0,1,43.19-23.93C251.89,87.63,252.32,88.53,252.74,89.44Z"/></g><g class="cls-1"><path class="cls-8" d="M318.92,66.91a389.61,389.61,0,0,0-46.86,14.33L271,78.43A392.67,392.67,0,0,1,318.23,64Z"/></g><g class="cls-1"><path class="cls-8" d="M388.34,58.63a391.13,391.13,0,0,0-48.81,4.27l-.45-3a393.43,393.43,0,0,1,49.19-4.31C388.29,56.63,388.32,57.63,388.34,58.63Z"/></g><g class="cls-9"><polygon class="cls-8" points="407.38 339.34 334.43 339.34 233.37 238.28 176.18 238.28 176.18 236.68 234.03 236.68 335.09 337.74 406.72 337.74 414.91 329.55 415.24 329.55 482.15 329.35 521.76 329.35 544.93 306.19 613.16 306.19 613.16 307.78 545.59 307.78 522.42 330.95 482.15 330.95 415.57 331.15 407.38 339.34"/><polygon class="cls-8" points="273.97 410.84 212.6 410.84 166.26 364.5 101.08 364.5 101.08 362.9 166.92 362.9 213.26 409.24 273.31 409.24 300.87 381.68 449.39 381.68 449.39 275.5 475.43 249.46 578.01 249.46 578.01 251.06 476.09 251.06 450.99 276.16 450.99 383.28 301.53 383.28 273.97 410.84"/><polygon class="cls-8" points="265.98 474.75 147.42 474.75 147.42 473.15 265.32 473.15 297.04 441.43 298.17 442.56 265.98 474.75"/><polygon class="cls-8" points="229.24 567.42 136.23 567.42 136.23 565.82 228.57 565.82 339.22 455.18 374.77 455.18 420.9 409.04 522.42 409.04 612 498.62 678.67 498.62 678.67 500.21 611.34 500.21 521.76 410.64 421.56 410.64 375.43 456.77 339.88 456.77 229.24 567.42"/><polygon class="cls-8" points="552.45 529.87 503.39 529.87 454.42 480.9 455.55 479.77 504.05 528.27 552.45 528.27 552.45 529.87"/><rect class="cls-8" x="498.92" y="391.66" width="87.88" height="1.6"/><rect class="cls-8" x="391.88" y="206.32" width="1.6" height="79.89"/><polygon class="cls-8" points="365.84 586.95 292.01 586.95 292.01 585.36 365.18 585.36 391.88 558.66 391.88 499.88 393.47 499.88 393.47 559.32 365.84 586.95"/><path class="cls-8" d="M392.67,500.31A107.85,107.85,0,1,1,500.52,392.46,108,108,0,0,1,392.67,500.31Zm0-214.1A106.25,106.25,0,1,0,498.92,392.46,106.38,106.38,0,0,0,392.67,286.21Z"/><rect class="cls-8" x="391.88" y="285.41" width="1.6" height="214.1"/><circle class="cls-8" cx="177.78" cy="236.68" r="4.79"/><circle class="cls-8" cx="101.08" cy="362.91" r="4.79"/><circle class="cls-8" cx="147.42" cy="473.15" r="4.79"/><circle class="cls-8" cx="136.23" cy="565.82" r="4.79"/><circle class="cls-8" cx="292.81" cy="588.19" r="4.79"/><circle class="cls-8" cx="553.25" cy="529.07" r="4.79"/><circle class="cls-8" cx="679.47" cy="498.71" r="4.79"/><circle class="cls-8" cx="586.8" cy="393.26" r="4.79"/><circle class="cls-8" cx="613.96" cy="306.98" r="4.79"/><circle class="cls-8" cx="578.81" cy="249.46" r="4.79"/><circle class="cls-8" cx="392.67" cy="206.32" r="4.79"/><circle class="cls-8" cx="334.36" cy="338.94" r="4.79"/><circle class="cls-8" cx="414.24" cy="330.95" r="4.79"/><circle class="cls-8" cx="449.39" cy="382.08" r="4.79"/><circle class="cls-8" cx="297.61" cy="441.2" r="4.79"/><circle class="cls-8" cx="339.15" cy="457.17" r="4.79"/><circle class="cls-8" cx="422.23" cy="409.24" r="4.79"/></g></g></g></g></svg>